<svg width="667" height="668" viewBox="0 0 667 668" fill="none" xmlns="http://www.w3.org/2000/svg">
<path d="M44.3081 283.751L213.916 286.712C284.836 164.144 394.186 204.264 430.164 244.632C495.219 311.999 455.954 388.174 427.896 421.951C425.811 424.461 423.33 426.702 420.667 428.587C311.301 506.009 233.398 421.681 207.892 369.144L45.0398 373.179L143.076 404.695L117.424 429.467L137.452 464.207L176.616 453.428L210.315 492.992L196.163 515.672L230.023 546.068L260.339 516.792C272.95 529.851 297.549 530.433 308.271 529.092L312.135 570.428L355.723 568.896L361.027 527.72C381.101 533.573 400.058 524.58 407.027 519.352L436.303 549.668L471.123 525.056L455.679 490.396C476.009 481.58 489.025 462.702 492.991 454.365L529.343 473.341L552.903 437.069L521.296 409.005C534.355 396.393 537.993 371.849 538.18 361.153L574.932 357.209L573.4 313.621L536.888 303.813C542.613 291.074 533.695 267.838 528.52 257.813L556.504 230.789L527.308 195.889L501.816 211.493C496.603 194.894 472.62 176.593 461.28 169.517L480.016 146.917L443.905 114.188L413.588 143.464C397.31 130.341 374.851 129.796 365.656 131.164L363.965 96.7443L318.125 95.9441L303.733 132.376C289.064 132.12 268.455 139.403 259.984 143.076L232.961 115.092L200.312 146.62L218.328 165.276L174.02 208.064L156.004 189.408L123.356 220.935L150.38 248.92L44.3081 283.751Z" fill="url(#paint0_linear_2229_1226)"/>
<circle cx="336.884" cy="334.711" r="71.3211" transform="rotate(-44 336.884 334.711)" fill="black"/>
<defs>
<linearGradient id="paint0_linear_2229_1226" x1="164.634" y1="497.023" x2="502.724" y2="170.533" gradientUnits="userSpaceOnUse">
<stop stop-color="#5B10E5"/>
<stop offset="1" stop-color="#DC63FB"/>
</linearGradient>
</defs>
</svg>
